<?xml version="1.0" standalone="no"?>
<!DOCTYPE svg PUBLIC "-//W3C//DTD SVG 20010904//EN"
 "http://www.w3.org/TR/2001/REC-SVG-20010904/DTD/svg10.dtd">
<svg version="1.0" xmlns="http://www.w3.org/2000/svg"
 width="170.000000pt" height="170.000000pt" viewBox="0 0 170.000000 170.000000"
 preserveAspectRatio="xMidYMid meet">
<metadata>
Created by potrace 1.11, written by Peter Selinger 2001-2013
</metadata>
<g transform="translate(0.000000,170.000000) scale(0.100000,-0.100000)"
fill="#000000" stroke="none">
<path d="M776 1494 c-21 -21 -20 -37 4 -59 41 -37 97 24 58 63 -17 17 -44 15
-62 -4z"/>
<path d="M782 1298 c-13 -13 -18 -431 -6 -462 7 -19 49 -21 61 -3 10 17 11
438 1 460 -10 20 -39 22 -56 5z"/>
<path d="M1404 1295 c-11 -7 -71 -92 -134 -189 -63 -97 -118 -176 -122 -176
-4 0 -53 69 -109 153 -133 199 -129 195 -129 123 0 -58 1 -61 106 -217 58 -87
113 -160 121 -163 20 -8 45 22 158 189 52 76 95 133 96 125 0 -8 2 -211 3
-450 2 -239 3 -440 4 -447 3 -18 41 -26 57 -13 13 11 15 89 15 529 0 284 -4
521 -8 527 -13 19 -39 23 -58 9z"/>
<path d="M2 590 c-1 -71 3 -100 11 -100 16 0 16 192 1 197 -7 2 -11 -31 -12
-97z"/>
<path d="M80 681 c0 -5 10 -11 23 -13 20 -3 22 -8 23 -78 2 -105 3 -112 15
-105 6 4 10 28 9 54 -4 112 -1 131 20 131 11 0 20 5 20 10 0 6 -25 10 -55 10
-30 0 -55 -4 -55 -9z"/>
<path d="M281 669 c-15 -40 -51 -165 -51 -178 0 -21 18 -11 24 13 4 17 14 25
37 28 27 4 32 1 41 -24 9 -25 28 -39 28 -20 0 18 -52 188 -60 196 -6 6 -13 -1
-19 -15z m32 -111 c-2 -5 -13 -8 -24 -8 -22 0 -23 2 -7 55 l11 40 12 -40 c7
-22 10 -43 8 -47z"/>
<path d="M419 683 c-4 -37 -4 -193 1 -194 26 -7 101 -5 106 2 6 10 -3 11 -53
11 -37 0 -36 -5 -33 110 1 37 -3 69 -9 73 -6 3 -11 3 -12 -2z"/>
<path d="M588 678 c-8 -26 -2 -188 8 -191 5 -1 10 43 12 101 1 58 -1 102 -7
102 -5 0 -11 -6 -13 -12z"/>
<path d="M691 596 c-17 -53 -31 -101 -31 -106 0 -21 20 -9 26 15 5 20 12 25
38 25 25 0 35 -6 44 -26 25 -53 29 -11 6 61 -13 42 -24 82 -24 89 0 8 -6 19
-14 25 -12 10 -20 -3 -45 -83z m54 -8 c7 -36 6 -38 -19 -38 -30 0 -30 0 -14
52 13 44 23 40 33 -14z"/>
<path d="M850 585 c0 -63 4 -105 10 -105 6 0 10 32 10 77 0 42 3 73 8 69 4 -4
23 -37 42 -73 19 -36 40 -65 45 -64 6 0 10 40 10 96 0 57 -4 95 -10 95 -6 0
-10 -28 -9 -65 0 -36 -2 -65 -6 -65 -4 0 -24 32 -44 70 -21 39 -41 70 -47 70
-5 0 -9 -46 -9 -105z"/>
<path d="M1085 678 c-10 -28 -55 -182 -55 -190 0 -19 20 -6 26 17 5 20 12 25
40 25 28 0 35 -5 40 -25 6 -26 24 -35 24 -12 0 24 -55 197 -63 197 -4 0 -10
-6 -12 -12z m29 -94 c6 -29 5 -31 -19 -31 -19 0 -24 4 -21 16 3 9 8 29 12 45
8 32 17 22 28 -30z"/>
<path d="M1066 430 c-27 -5 -29 -8 -28 -52 0 -27 1 -70 1 -98 l1 -50 55 0 c30
0 55 4 55 9 0 5 -15 9 -32 9 -56 -1 -58 1 -58 37 0 33 2 35 34 35 19 0 38 5
41 10 4 6 -9 10 -33 10 -37 0 -39 1 -40 35 -1 36 7 41 60 36 9 -1 19 2 22 7 7
12 -39 19 -78 12z"/>
<path d="M268 418 c-3 -11 -3 -136 1 -175 0 -7 6 -13 11 -13 6 0 9 25 7 65 -2
36 -1 68 2 70 2 3 14 -19 25 -48 12 -28 26 -51 31 -49 6 2 19 26 30 55 l20 52
3 -72 c4 -111 22 -88 22 28 0 118 -10 124 -49 29 l-26 -63 -29 66 c-29 66 -40
79 -48 55z"/>
<path d="M495 331 c0 -112 -1 -110 75 -101 52 6 40 21 -14 17 -36 -3 -36 -3
-36 35 0 37 1 38 35 38 19 0 35 5 35 10 0 6 -16 10 -35 10 -33 0 -35 2 -35 35
0 36 4 38 52 35 14 -1 29 3 33 9 4 7 -13 11 -52 11 l-58 0 0 -99z"/>
<path d="M678 418 c-2 -7 -4 -51 -3 -97 1 -59 5 -86 14 -89 10 -3 12 12 8 67
-2 39 -1 71 3 71 3 0 22 -30 42 -67 42 -78 58 -89 59 -41 3 140 1 168 -11 168
-5 0 -10 -34 -12 -75 l-3 -76 -38 76 c-38 74 -51 88 -59 63z"/>
<path d="M877 409 c-21 -29 -9 -56 39 -88 47 -33 53 -64 11 -69 -16 -2 -34 1
-41 7 -17 14 -29 2 -15 -16 14 -16 81 -17 97 -1 7 7 12 25 12 40 0 23 -9 34
-45 56 -33 19 -45 33 -43 47 3 17 10 20 41 18 50 -3 45 21 -5 25 -28 2 -40 -2
-51 -19z"/>
</g>
</svg>
